<svg class="chart" width="760" height="490"><path d="M72,327L115,312L202,293L202,196L115,208L72,231Z" fill="LightGray" class="gap accommodated0-gap"></path><path d="M0,17.841241161527712A17.841241161527712,17.841241161527712 0 1,1 0,-17.841241161527712A17.841241161527712,17.841241161527712 0 1,1 0,17.841241161527712Z" fill="#24559C" transform="translate(72,415) rotate(45)" class="gap-point accommodated0 nofx"></path><path d="M0,17.841241161527712A17.841241161527712,17.841241161527712 0 1,1 0,-17.841241161527712A17.841241161527712,17.841241161527712 0 1,1 0,17.841241161527712Z" fill="#24559C" transform="translate(115,415) rotate(45)" class="gap-point accommodated0 nofx"></path><path d="M0,17.841241161527712A17.841241161527712,17.841241161527712 0 1,1 0,-17.841241161527712A17.841241161527712,17.841241161527712 0 1,1 0,17.841241161527712Z" fill="#24559C" transform="translate(184,415) rotate(45)" class="gap-point accommodated0 nofx"></path><text x="72" y="421" fill="white" text-anchor="middle" class="gap-point-text accommodated0 nofx">32*</text><text x="115" y="421" fill="white" text-anchor="middle" class="gap-point-text accommodated0 nofx">35*</text><text x="184" y="421" fill="white" text-anchor="middle" class="gap-point-text accommodated0 nofx">32*</text><text class="gap-label-text accommodated0 nofx" x="194" y="395" text-anchor="start"></text><path d="M202,296L289,280L355,242L398,230L442,223L485,223L529,218L572,217L616,218L616,145L572,140L529,143L485,146L442,146L398,152L355,160L289,187L202,194Z" fill="LightGray" class="gap accommodated1-gap"></path><path d="M0,17.841241161527712A17.841241161527712,17.841241161527712 0 1,1 0,-17.841241161527712A17.841241161527712,17.841241161527712 0 1,1 0,17.841241161527712Z" fill="#24559C" transform="translate(220,415) rotate(45)" class="gap-point accommodated1 nofx"></path><path d="M0,17.841241161527712A17.841241161527712,17.841241161527712 0 1,1 0,-17.841241161527712A17.841241161527712,17.841241161527712 0 1,1 0,17.841241161527712Z" fill="#24559C" transform="translate(289,415) rotate(45)" class="gap-point accommodated1 nofx"></path><path d="M0,17.841241161527712A17.841241161527712,17.841241161527712 0 1,1 0,-17.841241161527712A17.841241161527712,17.841241161527712 0 1,1 0,17.841241161527712Z" fill="#24559C" transform="translate(355,415) rotate(45)" class="gap-point accommodated1 nofx"></path><path d="M0,17.841241161527712A17.841241161527712,17.841241161527712 0 1,1 0,-17.841241161527712A17.841241161527712,17.841241161527712 0 1,1 0,17.841241161527712Z" fill="#24559C" transform="translate(398,415) rotate(45)" class="gap-point accommodated1 nofx"></path><path d="M0,17.841241161527712A17.841241161527712,17.841241161527712 0 1,1 0,-17.841241161527712A17.841241161527712,17.841241161527712 0 1,1 0,17.841241161527712Z" fill="#24559C" transform="translate(442,415) rotate(45)" class="gap-point accommodated1 nofx"></path><path d="M0,17.841241161527712A17.841241161527712,17.841241161527712 0 1,1 0,-17.841241161527712A17.841241161527712,17.841241161527712 0 1,1 0,17.841241161527712Z" fill="#24559C" transform="translate(485,415) rotate(45)" class="gap-point accommodated1 nofx"></path><path d="M0,17.841241161527712A17.841241161527712,17.841241161527712 0 1,1 0,-17.841241161527712A17.841241161527712,17.841241161527712 0 1,1 0,17.841241161527712Z" fill="#24559C" transform="translate(529,415) rotate(45)" class="gap-point accommodated1 nofx"></path><path d="M0,17.841241161527712A17.841241161527712,17.841241161527712 0 1,1 0,-17.841241161527712A17.841241161527712,17.841241161527712 0 1,1 0,17.841241161527712Z" fill="#24559C" transform="translate(572,415) rotate(45)" class="gap-point accommodated1 nofx"></path><path d="M0,17.841241161527712A17.841241161527712,17.841241161527712 0 1,1 0,-17.841241161527712A17.841241161527712,17.841241161527712 0 1,1 0,17.841241161527712Z" fill="#24559C" transform="translate(616,415) rotate(45)" class="gap-point accommodated1 nofx"></path><text x="220" y="421" fill="white" text-anchor="middle" class="gap-point-text accommodated1 nofx">34*</text><text x="289" y="421" fill="white" text-anchor="middle" class="gap-point-text accommodated1 nofx">31*</text><text x="355" y="421" fill="white" text-anchor="middle" class="gap-point-text accommodated1 nofx">27*</text><text x="398" y="421" fill="white" text-anchor="middle" class="gap-point-text accommodated1 nofx">26*</text><text x="442" y="421" fill="white" text-anchor="middle" class="gap-point-text accommodated1 nofx">26*</text><text x="485" y="421" fill="white" text-anchor="middle" class="gap-point-text accommodated1 nofx">26*</text><text x="529" y="421" fill="white" text-anchor="middle" class="gap-point-text accommodated1 nofx">25</text><text x="572" y="421" fill="white" text-anchor="middle" class="gap-point-text accommodated1 nofx">26*</text><text x="616" y="421" fill="white" text-anchor="middle" class="gap-point-text accommodated1 nofx">24</text><text class="gap-label-text accommodated1 nofx" x="626" y="395" text-anchor="start">Score difference</text><path d="M72,231L115,208L202,196" fill="none" stroke="black" class="value-s0 data-line accommodated0-series1" stroke-width="2" stroke-dasharray="5,3"></path><path d="M0,7.817640190446719A7.817640190446719,7.817640190446719 0 1,1 0,-7.817640190446719A7.817640190446719,7.817640190446719 0 1,1 0,7.817640190446719Z" fill="white" opacity="1" stroke="black" class="value-s0 data-point accommodated0-series1" stroke-width="2" transform="translate(72,231)"></path><path d="M0,7.817640190446719A7.817640190446719,7.817640190446719 0 1,1 0,-7.817640190446719A7.817640190446719,7.817640190446719 0 1,1 0,7.817640190446719Z" fill="white" opacity="1" stroke="black" class="value-s0 data-point accommodated0-series1" stroke-width="2" transform="translate(115,208)"></path><path d="M0,7.817640190446719A7.817640190446719,7.817640190446719 0 1,1 0,-7.817640190446719A7.817640190446719,7.817640190446719 0 1,1 0,7.817640190446719Z" fill="white" opacity="1" stroke="black" class="value-s0 data-point accommodated0-series1" stroke-width="2" transform="translate(202,196)"></path><text x="72" y="211" opacity="1" class="value-s0 data-text accommodated0-series1" text-anchor="middle">220*</text><text x="115" y="188" opacity="1" class="value-s0 data-text accommodated0-series1" text-anchor="middle">227*</text><text x="184" y="176" opacity="1" class="value-s0 data-text accommodated0-series1" text-anchor="middle">231*</text><path d="M72,327L115,312L202,293" fill="none" stroke="black" class="value-s1 data-line accommodated0-series2" stroke-width="2" stroke-dasharray="5,3"></path><path d="M-9.2951600308978,-3.0983866769659336H-3.0983866769659336V-9.2951600308978H3.0983866769659336V-3.0983866769659336H9.2951600308978V3.0983866769659336H3.0983866769659336V9.2951600308978H-3.0983866769659336V3.0983866769659336H-9.2951600308978Z" fill="white" opacity="1" stroke="black" class="value-s1 data-point accommodated0-series2" stroke-width="2" transform="translate(72,327)"></path><path d="M-9.2951600308978,-3.0983866769659336H-3.0983866769659336V-9.2951600308978H3.0983866769659336V-3.0983866769659336H9.2951600308978V3.0983866769659336H3.0983866769659336V9.2951600308978H-3.0983866769659336V3.0983866769659336H-9.2951600308978Z" fill="white" opacity="1" stroke="black" class="value-s1 data-point accommodated0-series2" stroke-width="2" transform="translate(115,312)"></path><path d="M-9.2951600308978,-3.0983866769659336H-3.0983866769659336V-9.2951600308978H3.0983866769659336V-3.0983866769659336H9.2951600308978V3.0983866769659336H3.0983866769659336V9.2951600308978H-3.0983866769659336V3.0983866769659336H-9.2951600308978Z" fill="white" opacity="1" stroke="black" class="value-s1 data-point accommodated0-series2" stroke-width="2" transform="translate(202,293)"></path><text x="72" y="357" opacity="1" class="value-s1 data-text accommodated0-series2" text-anchor="middle">188*</text><text x="115" y="342" opacity="1" class="value-s1 data-text accommodated0-series2" text-anchor="middle">193*</text><text x="184" y="323" opacity="1" class="value-s1 data-text accommodated0-series2" text-anchor="middle">199*</text><path d="M202,194L289,187L355,160L398,152L442,146L485,146L529,143L572,140L616,145" fill="none" stroke="black" class="value-s0 data-line accommodated1-series1" stroke-width="2"></path><path d="M0,7.817640190446719A7.817640190446719,7.817640190446719 0 1,1 0,-7.817640190446719A7.817640190446719,7.817640190446719 0 1,1 0,7.817640190446719Z" fill="white" opacity="1" stroke="black" class="value-s0 data-point accommodated1-series1" stroke-width="2" transform="translate(202,194)"></path><path d="M0,7.817640190446719A7.817640190446719,7.817640190446719 0 1,1 0,-7.817640190446719A7.817640190446719,7.817640190446719 0 1,1 0,7.817640190446719Z" fill="white" opacity="1" stroke="black" class="value-s0 data-point accommodated1-series1" stroke-width="2" transform="translate(289,187)"></path><path d="M0,7.817640190446719A7.817640190446719,7.817640190446719 0 1,1 0,-7.817640190446719A7.817640190446719,7.817640190446719 0 1,1 0,7.817640190446719Z" fill="white" opacity="1" stroke="black" class="value-s0 data-point accommodated1-series1" stroke-width="2" transform="translate(355,160)"></path><path d="M0,7.817640190446719A7.817640190446719,7.817640190446719 0 1,1 0,-7.817640190446719A7.817640190446719,7.817640190446719 0 1,1 0,7.817640190446719Z" fill="white" opacity="1" stroke="black" class="value-s0 data-point accommodated1-series1" stroke-width="2" transform="translate(398,152)"></path><path d="M0,7.817640190446719A7.817640190446719,7.817640190446719 0 1,1 0,-7.817640190446719A7.817640190446719,7.817640190446719 0 1,1 0,7.817640190446719Z" fill="white" opacity="1" stroke="black" class="value-s0 data-point accommodated1-series1" stroke-width="2" transform="translate(442,146)"></path><path d="M0,7.817640190446719A7.817640190446719,7.817640190446719 0 1,1 0,-7.817640190446719A7.817640190446719,7.817640190446719 0 1,1 0,7.817640190446719Z" fill="white" opacity="1" stroke="black" class="value-s0 data-point accommodated1-series1" stroke-width="2" transform="translate(485,146)"></path><path d="M0,7.817640190446719A7.817640190446719,7.817640190446719 0 1,1 0,-7.817640190446719A7.817640190446719,7.817640190446719 0 1,1 0,7.817640190446719Z" fill="white" opacity="1" stroke="black" class="value-s0 data-point accommodated1-series1" stroke-width="2" transform="translate(529,143)"></path><path d="M0,7.817640190446719A7.817640190446719,7.817640190446719 0 1,1 0,-7.817640190446719A7.817640190446719,7.817640190446719 0 1,1 0,7.817640190446719Z" fill="white" opacity="1" stroke="black" class="value-s0 data-point accommodated1-series1" stroke-width="2" transform="translate(572,140)"></path><path d="M0,7.817640190446719A7.817640190446719,7.817640190446719 0 1,1 0,-7.817640190446719A7.817640190446719,7.817640190446719 0 1,1 0,7.817640190446719Z" fill="white" opacity="1" stroke="black" class="value-s0 data-point accommodated1-series1" stroke-width="2" transform="translate(616,145)"></path><text x="220" y="174" opacity="1" class="value-s0 data-text accommodated1-series1" text-anchor="middle">232*</text><text x="289" y="167" opacity="1" class="value-s0 data-text accommodated1-series1" text-anchor="middle">234*</text><text x="355" y="140" opacity="1" class="value-s0 data-text accommodated1-series1" text-anchor="middle">243*</text><text x="398" y="132" opacity="1" class="value-s0 data-text accommodated1-series1" text-anchor="middle">246*</text><text x="442" y="126" opacity="1" class="value-s0 data-text accommodated1-series1" text-anchor="middle">248</text><text x="485" y="126" opacity="1" class="value-s0 data-text accommodated1-series1" text-anchor="middle">248</text><text x="529" y="123" opacity="1" class="value-s0 data-text accommodated1-series1" text-anchor="middle">249</text><text x="572" y="120" opacity="1" class="value-s0 data-text accommodated1-series1" text-anchor="middle">250*</text><text x="616" y="125" opacity="1" class="value-s0 data-text accommodated1-series1" text-anchor="middle">248</text><path d="M202,296L289,280L355,242L398,230L442,223L485,223L529,218L572,217L616,218" fill="none" stroke="black" class="value-s1 data-line accommodated1-series2" stroke-width="2"></path><path d="M-9.2951600308978,-3.0983866769659336H-3.0983866769659336V-9.2951600308978H3.0983866769659336V-3.0983866769659336H9.2951600308978V3.0983866769659336H3.0983866769659336V9.2951600308978H-3.0983866769659336V3.0983866769659336H-9.2951600308978Z" fill="white" opacity="1" stroke="black" class="value-s1 data-point accommodated1-series2" stroke-width="2" transform="translate(202,296)"></path><path d="M-9.2951600308978,-3.0983866769659336H-3.0983866769659336V-9.2951600308978H3.0983866769659336V-3.0983866769659336H9.2951600308978V3.0983866769659336H3.0983866769659336V9.2951600308978H-3.0983866769659336V3.0983866769659336H-9.2951600308978Z" fill="white" opacity="1" stroke="black" class="value-s1 data-point accommodated1-series2" stroke-width="2" transform="translate(289,280)"></path><path d="M-9.2951600308978,-3.0983866769659336H-3.0983866769659336V-9.2951600308978H3.0983866769659336V-3.0983866769659336H9.2951600308978V3.0983866769659336H3.0983866769659336V9.2951600308978H-3.0983866769659336V3.0983866769659336H-9.2951600308978Z" fill="white" opacity="1" stroke="black" class="value-s1 data-point accommodated1-series2" stroke-width="2" transform="translate(355,242)"></path><path d="M-9.2951600308978,-3.0983866769659336H-3.0983866769659336V-9.2951600308978H3.0983866769659336V-3.0983866769659336H9.2951600308978V3.0983866769659336H3.0983866769659336V9.2951600308978H-3.0983866769659336V3.0983866769659336H-9.2951600308978Z" fill="white" opacity="1" stroke="black" class="value-s1 data-point accommodated1-series2" stroke-width="2" transform="translate(398,230)"></path><path d="M-9.2951600308978,-3.0983866769659336H-3.0983866769659336V-9.2951600308978H3.0983866769659336V-3.0983866769659336H9.2951600308978V3.0983866769659336H3.0983866769659336V9.2951600308978H-3.0983866769659336V3.0983866769659336H-9.2951600308978Z" fill="white" opacity="1" stroke="black" class="value-s1 data-point accommodated1-series2" stroke-width="2" transform="translate(442,223)"></path><path d="M-9.2951600308978,-3.0983866769659336H-3.0983866769659336V-9.2951600308978H3.0983866769659336V-3.0983866769659336H9.2951600308978V3.0983866769659336H3.0983866769659336V9.2951600308978H-3.0983866769659336V3.0983866769659336H-9.2951600308978Z" fill="white" opacity="1" stroke="black" class="value-s1 data-point accommodated1-series2" stroke-width="2" transform="translate(485,223)"></path><path d="M-9.2951600308978,-3.0983866769659336H-3.0983866769659336V-9.2951600308978H3.0983866769659336V-3.0983866769659336H9.2951600308978V3.0983866769659336H3.0983866769659336V9.2951600308978H-3.0983866769659336V3.0983866769659336H-9.2951600308978Z" fill="white" opacity="1" stroke="black" class="value-s1 data-point accommodated1-series2" stroke-width="2" transform="translate(529,218)"></path><path d="M-9.2951600308978,-3.0983866769659336H-3.0983866769659336V-9.2951600308978H3.0983866769659336V-3.0983866769659336H9.2951600308978V3.0983866769659336H3.0983866769659336V9.2951600308978H-3.0983866769659336V3.0983866769659336H-9.2951600308978Z" fill="white" opacity="1" stroke="black" class="value-s1 data-point accommodated1-series2" stroke-width="2" transform="translate(572,217)"></path><path d="M-9.2951600308978,-3.0983866769659336H-3.0983866769659336V-9.2951600308978H3.0983866769659336V-3.0983866769659336H9.2951600308978V3.0983866769659336H3.0983866769659336V9.2951600308978H-3.0983866769659336V3.0983866769659336H-9.2951600308978Z" fill="white" opacity="1" stroke="black" class="value-s1 data-point accommodated1-series2" stroke-width="2" transform="translate(616,218)"></path><text x="220" y="326" opacity="1" class="value-s1 data-text accommodated1-series2" text-anchor="middle">198*</text><text x="289" y="310" opacity="1" class="value-s1 data-text accommodated1-series2" text-anchor="middle">203*</text><text x="355" y="272" opacity="1" class="value-s1 data-text accommodated1-series2" text-anchor="middle">216*</text><text x="398" y="260" opacity="1" class="value-s1 data-text accommodated1-series2" text-anchor="middle">220*</text><text x="442" y="253" opacity="1" class="value-s1 data-text accommodated1-series2" text-anchor="middle">222*</text><text x="485" y="253" opacity="1" class="value-s1 data-text accommodated1-series2" text-anchor="middle">222*</text><text x="529" y="248" opacity="1" class="value-s1 data-text accommodated1-series2" text-anchor="middle">224</text><text x="572" y="247" opacity="1" class="value-s1 data-text accommodated1-series2" text-anchor="middle">224</text><text x="616" y="248" opacity="1" class="value-s1 data-text accommodated1-series2" text-anchor="middle">224</text><text class="yaxis-text" x="40" y="445" text-anchor="end">0</text><text class="yaxis-text" x="40" y="415" text-anchor="end">160</text><text class="yaxis-text" x="40" y="385" text-anchor="end">170</text><text class="yaxis-text" x="40" y="355" text-anchor="end">180</text><text class="yaxis-text" x="40" y="325" text-anchor="end">190</text><text class="yaxis-text" x="40" y="295" text-anchor="end">200</text><text class="yaxis-text" x="40" y="265" text-anchor="end">210</text><text class="yaxis-text" x="40" y="235" text-anchor="end">220</text><text class="yaxis-text" x="40" y="205" text-anchor="end">230</text><text class="yaxis-text" x="40" y="175" text-anchor="end">240</text><text class="yaxis-text" x="40" y="145" text-anchor="end">250</text><text class="yaxis-text" x="40" y="115" text-anchor="end">260</text><text class="yaxis-text" x="40" y="85" text-anchor="end">270</text><text class="yaxis-text" x="40" y="55" text-anchor="end">500</text><line class="yaxis-ticks" x1="50" x2="45" y1="440" y2="440" stroke="black"></line><line class="yaxis-ticks" x1="50" x2="45" y1="410" y2="410" stroke="black"></line><line class="yaxis-ticks" x1="50" x2="45" y1="380" y2="380" stroke="black"></line><line class="yaxis-ticks" x1="50" x2="45" y1="350" y2="350" stroke="black"></line><line class="yaxis-ticks" x1="50" x2="45" y1="320" y2="320" stroke="black"></line><line class="yaxis-ticks" x1="50" x2="45" y1="290" y2="290" stroke="black"></line><line class="yaxis-ticks" x1="50" x2="45" y1="260" y2="260" stroke="black"></line><line class="yaxis-ticks" x1="50" x2="45" y1="230" y2="230" stroke="black"></line><line class="yaxis-ticks" x1="50" x2="45" y1="200" y2="200" stroke="black"></line><line class="yaxis-ticks" x1="50" x2="45" y1="170" y2="170" stroke="black"></line><line class="yaxis-ticks" x1="50" x2="45" y1="140" y2="140" stroke="black"></line><line class="yaxis-ticks" x1="50" x2="45" y1="110" y2="110" stroke="black"></line><line class="yaxis-ticks" x1="50" x2="45" y1="80" y2="80" stroke="black"></line><line class="yaxis-ticks" x1="50" x2="45" y1="50" y2="50" stroke="black"></line><line class="yaxis-line" x1="50" x2="50" y1="440" y2="50" stroke="black"></line><text x="72" y="460" text-anchor="middle" class="xaxis-text-obj0 xaxis-text">'90</text><text x="115" y="460" text-anchor="middle" class="xaxis-text-obj1 xaxis-text">'92</text><text x="202" y="460" text-anchor="middle" class="xaxis-text-obj2 xaxis-text">'96</text><text x="289" y="460" text-anchor="middle" class="xaxis-text-obj3 xaxis-text">'00</text><text x="355" y="460" text-anchor="middle" class="xaxis-text-obj4 xaxis-text">'03</text><text x="398" y="460" text-anchor="middle" class="xaxis-text-obj5 xaxis-text">'05</text><text x="442" y="460" text-anchor="middle" class="xaxis-text-obj6 xaxis-text">'07</text><text x="485" y="460" text-anchor="middle" class="xaxis-text-obj7 xaxis-text">'09</text><text x="529" y="460" text-anchor="middle" class="xaxis-text-obj8 xaxis-text">'11</text><text x="572" y="460" text-anchor="middle" class="xaxis-text-obj9 xaxis-text">'13</text><text x="616" y="460" text-anchor="middle" class="xaxis-text-obj10 xaxis-text">'15</text><line class="xaxis-ticks" x1="72" x2="72" y1="440" y2="445" stroke="black"></line><line class="xaxis-ticks" x1="115" x2="115" y1="440" y2="445" stroke="black"></line><line class="xaxis-ticks" x1="202" x2="202" y1="440" y2="445" stroke="black"></line><line class="xaxis-ticks" x1="289" x2="289" y1="440" y2="445" stroke="black"></line><line class="xaxis-ticks" x1="355" x2="355" y1="440" y2="445" stroke="black"></line><line class="xaxis-ticks" x1="398" x2="398" y1="440" y2="445" stroke="black"></line><line class="xaxis-ticks" x1="442" x2="442" y1="440" y2="445" stroke="black"></line><line class="xaxis-ticks" x1="485" x2="485" y1="440" y2="445" stroke="black"></line><line class="xaxis-ticks" x1="529" x2="529" y1="440" y2="445" stroke="black"></line><line class="xaxis-ticks" x1="572" x2="572" y1="440" y2="445" stroke="black"></line><line class="xaxis-ticks" x1="616" x2="616" y1="440" y2="445" stroke="black"></line><line class="xaxis-line" x1="50" x2="637.25" y1="440" y2="440" stroke="black"></line><rect class="trunc nofx" x="41" y="422" width="18" height="6" transform="rotate(-30,50,425)" fill="white" stroke="white"></rect><rect class="trunc nofx" x="41" y="62" width="18" height="6" transform="rotate(-30,50,65)" fill="white" stroke="white"></rect><path class="trunc nofx" d="M41,422h18M41,428h18" transform="rotate(-30,50,425)" stroke="black"></path><path class="trunc nofx" d="M41,62h18M41,68h18" transform="rotate(-30,50,65)" stroke="black"></path><text x="343.625" y="480" text-anchor="middle" class="yaxis xy-label">ASSESSMENT YEAR</text><text x="30" y="30" text-anchor="middle" class="xaxis xy-label"><tspan x="30" y="22" dy="0">SCALE</tspan><tspan x="30" y="22" dy="16">SCORE</tspan></text></svg>